<svg width="84" height="60" viewBox="0 0 84 60" fill="none" xmlns="http://www.w3.org/2000/svg">
<path d="M54.4917 0.833347C62.143 0.829614 69.4894 3.83263 74.9472 9.19503C80.405 14.5574 83.5371 21.8497 83.6683 29.4999C83.7995 37.1502 80.9192 44.5456 75.6485 50.0919C70.3777 55.6383 63.1386 58.8914 55.4917 59.15L54.4917 59.1667H29.5083C21.857 59.1704 14.5106 56.1674 9.05279 50.805C3.59499 45.4426 0.462899 38.1503 0.331716 30.5001C0.200532 22.8499 3.08076 15.4545 8.3515 9.9081C13.6222 4.36173 20.8614 1.10861 28.5083 0.850014L29.5042 0.833347H54.4875H54.4917ZM53.4583 32.0833C52.077 32.0833 50.7522 32.6321 49.7755 33.6088C48.7987 34.5856 48.25 35.9103 48.25 37.2917C48.25 38.673 48.7987 39.9978 49.7755 40.9745C50.7522 41.9513 52.077 42.5 53.4583 42.5C54.8397 42.5 56.1644 41.9513 57.1412 40.9745C58.1179 39.9978 58.6667 38.673 58.6667 37.2917C58.6667 35.9103 58.1179 34.5856 57.1412 33.6088C56.1644 32.6321 54.8397 32.0833 53.4583 32.0833ZM25.3333 17.5C24.5782 17.5 23.8486 17.7735 23.2795 18.2699C22.7103 18.7662 22.3402 19.4519 22.2375 20.2L22.2083 20.625V26.8667H15.9583C15.1609 26.8586 14.3906 27.1556 13.8051 27.697C13.2195 28.2383 12.8631 28.9831 12.8088 29.7787C12.7545 30.5743 13.0064 31.3605 13.5129 31.9764C14.0194 32.5924 14.7422 32.9913 15.5333 33.0917L15.9583 33.1208L22.2083 33.1167V39.375C22.2086 40.1668 22.5093 40.9289 23.0499 41.5075C23.5904 42.086 24.3304 42.4378 25.1203 42.4918C25.9103 42.5458 26.6912 42.2979 27.3054 41.7982C27.9196 41.2986 28.3212 40.5844 28.4292 39.8L28.4583 39.375V33.1167H34.7083C35.4951 33.1093 36.2502 32.8054 36.8227 32.2656C37.3953 31.7259 37.7431 30.99 37.7968 30.205C37.8504 29.4199 37.606 28.6436 37.1122 28.0309C36.6185 27.4182 35.9118 27.0144 35.1333 26.9L34.7083 26.8708L28.4583 26.8667V20.625C28.4583 19.7962 28.1291 19.0014 27.543 18.4153C26.957 17.8293 26.1621 17.5 25.3333 17.5ZM61.7917 17.5C60.4103 17.5 59.0856 18.0487 58.1088 19.0255C57.1321 20.0023 56.5833 21.327 56.5833 22.7083C56.5833 24.0897 57.1321 25.4144 58.1088 26.3912C59.0856 27.3679 60.4103 27.9167 61.7917 27.9167C63.173 27.9167 64.4978 27.3679 65.4745 26.3912C66.4513 25.4144 67 24.0897 67 22.7083C67 21.327 66.4513 20.0023 65.4745 19.0255C64.4978 18.0487 63.173 17.5 61.7917 17.5Z" fill="black"/>
</svg>
