<svg width="54" height="54" viewBox="0 0 54 54" fill="none" xmlns="http://www.w3.org/2000/svg">
<path d="M27.2666 0.600006C30.8029 0.600006 34.1942 2.00476 36.6947 4.50525C39.1952 7.00573 40.6 10.3971 40.6 13.9333C40.6 17.4696 39.1952 20.8609 36.6947 23.3614C34.1942 25.8619 30.8029 27.2667 27.2666 27.2667C23.7304 27.2667 20.339 25.8619 17.8386 23.3614C15.3381 20.8609 13.9333 17.4696 13.9333 13.9333C13.9333 10.3971 15.3381 7.00573 17.8386 4.50525C20.339 2.00476 23.7304 0.600006 27.2666 0.600006ZM27.2666 33.9333C42 33.9333 53.9333 39.9 53.9333 47.2667V53.9333H0.599976V47.2667C0.599976 39.9 12.5333 33.9333 27.2666 33.9333Z" fill="black"/>
</svg>
